<?xml version="1.0"?>
<svg xmlns="http://www.w3.org/2000/svg" viewBox="0 0 64 64" width="55" height="55"><g id="glass_&#xB7;_shipping_&#xB7;_box_&#xB7;_package_&#xB7;_delivery" data-name="glass  &#xB7; shipping &#xB7;  box &#xB7; package &#xB7; delivery"><path d="M61.89,14.55l-6-12A.988.988,0,0,0,55,2H9a.988.988,0,0,0-.89.55l-6,12A1,1,0,0,0,2,15V61a1,1,0,0,0,1,1H61a1,1,0,0,0,1-1V15A1,1,0,0,0,61.89,14.55ZM54.38,4l5,10H38.85L37.18,4ZM28.85,4h6.3l1.67,10H27.18ZM27,16H37V28H27ZM9.62,4h17.2L25.15,14H4.62ZM60,60H4V16H25V29a1,1,0,0,0,1,1H38a1,1,0,0,0,1-1V16H60Z"/><path d="M29,38H9a1,1,0,0,0-1,1V55a1,1,0,0,0,1,1H29a1,1,0,0,0,1-1V39A1,1,0,0,0,29,38ZM28,54H10V40H28Z"/><path d="M18,48h7a1,1,0,0,0,0-2H18a1,1,0,0,0,0,2Z"/><path d="M18,44h7a1,1,0,0,0,0-2H18a1,1,0,0,0,0,2Z"/><path d="M18,52h7a1,1,0,0,0,0-2H18a1,1,0,0,0,0,2Z"/><path d="M13,48h1a1,1,0,0,0,0-2H13a1,1,0,0,0,0,2Z"/><path d="M13,44h1a1,1,0,0,0,0-2H13a1,1,0,0,0,0,2Z"/><path d="M13,52h1a1,1,0,0,0,0-2H13a1,1,0,0,0,0,2Z"/><path d="M55,38H45a1,1,0,0,0-1,1v5a6.006,6.006,0,0,0,5,5.91V54H47a1,1,0,0,0,0,2h6a1,1,0,0,0,0-2H51V49.91A6.006,6.006,0,0,0,56,44V39A1,1,0,0,0,55,38Zm-1,6a4,4,0,0,1-8,0V40h8Z"/></g></svg>
