<?xml version="1.0" encoding="iso-8859-1"?>
<!-- Generator: Adobe Illustrator 19.0.0, SVG Export Plug-In . SVG Version: 6.00 Build 0)  -->
<svg width="40px" height="40px" version="1.1" id="Capa_1" xmlns="http://www.w3.org/2000/svg" xmlns:xlink="http://www.w3.org/1999/xlink" x="0px" y="0px"
	 viewBox="0 0 496 496" style="enable-background:new 0 0 496 496;" xml:space="preserve">
<g>
	<g>
		<g>
			<path d="M80,65.472V0H16v65.472C6.712,68.784,0,77.584,0,88c0,6.168,2.408,11.744,6.24,16C2.408,108.256,0,113.832,0,120
				c0,10.416,6.712,19.216,16,22.528V345.48C6.712,348.784,0,357.584,0,368c0,6.168,2.408,11.744,6.24,16
				C2.408,388.256,0,393.832,0,400c0,10.416,6.712,19.216,16,22.528v18.768L34.232,496H61.76L80,441.296v-18.768
				c9.288-3.312,16-12.112,16-22.528c0-6.168-2.408-11.744-6.24-16c3.84-4.256,6.24-9.832,6.24-16c0-10.416-6.712-19.216-16-22.528
				V142.528c9.288-3.312,16-12.112,16-22.528c0-6.168-2.408-11.744-6.24-16C93.6,99.744,96,94.168,96,88
				C96,77.584,89.288,68.784,80,65.472z M32,16h32v48H32V16z M64,438.704L50.232,480h-4.464L32,438.704V424h32V438.704z M72,392
				c4.416,0,8,3.584,8,8c0,4.416-3.584,8-8,8H24c-4.416,0-8-3.584-8-8c0-4.416,3.584-8,8-8h16v-16H24c-4.416,0-8-3.584-8-8
				c0-4.416,3.584-8,8-8h48c4.416,0,8,3.584,8,8c0,4.416-3.584,8-8,8H56v16H72z M32,344V144h32v200H32z M72,128H24
				c-4.416,0-8-3.592-8-8s3.584-8,8-8h48c4.416,0,8,3.592,8,8C80,124.408,76.416,128,72,128z M72,96H24c-4.416,0-8-3.592-8-8
				s3.584-8,8-8h48c4.416,0,8,3.592,8,8S76.416,96,72,96z"/>
			<path d="M352,0h-64v96h-16v48h16v145.472c-9.288,3.312-16,12.112-16,22.528s6.712,19.216,16,22.528v34.952
				c-9.288,3.312-16,12.112-16,22.528v32c0,10.416,6.712,19.216,16,22.528V472c0,13.232,10.768,24,24,24h16
				c13.232,0,24-10.768,24-24v-25.472c9.288-3.312,16-12.112,16-22.528v-32c0-10.416-6.712-19.216-16-22.528V334.52
				c9.288-3.312,16-12.112,16-22.528c0-10.416-6.712-19.216-16-22.528V144h16V96h-16V0z M304,16h32v80h-32V16z M336,472
				c0,4.416-3.584,8-8,8h-16c-4.416,0-8-3.584-8-8v-24h32V472z M352,424c0,4.416-3.584,8-8,8h-48c-4.416,0-8-3.584-8-8v-32
				c0-4.416,3.584-8,8-8h48c4.416,0,8,3.584,8,8V424z M304,368v-32h32v32H304z M344,320h-48c-4.416,0-8-3.584-8-8
				c0-4.416,3.584-8,8-8h48c4.416,0,8,3.584,8,8C352,316.416,348.416,320,344,320z M304,288V144h32v144H304z M352,128h-64v-16h64
				V128z"/>
			<path d="M496,48h-16V24c0-13.232-10.768-24-24-24h-16c-13.232,0-24,10.768-24,24v24h-16v48h9.472
				c-0.896,2.512-1.472,5.184-1.472,8v72h8v144h-8v72c0,2.816,0.576,5.488,1.472,8H400v48h16v24c0,13.232,10.768,24,24,24h16
				c13.232,0,24-10.768,24-24v-24h16v-48h-9.472c0.896-2.512,1.472-5.184,1.472-8v-72h-8V176h8v-72c0-2.816-0.576-5.488-1.472-8H496
				V48z M464,472c0,4.416-3.584,8-8,8h-16c-4.416,0-8-3.584-8-8v-24h32V472z M480,432h-64v-16h16h32h16V432z M424,160v-56
				c0-4.408,3.584-8,8-8h32c4.416,0,8,3.592,8,8v56H424z M464,176v144h-32V176H464z M472,336v56c0,4.416-3.584,8-8,8h-32
				c-4.416,0-8-3.584-8-8v-56H472z M480,80h-16h-32h-16V64h24V48h-8V24c0-4.408,3.584-8,8-8h16c4.416,0,8,3.592,8,8v24h-8v16h24V80z
				"/>
			<path d="M216,24c0-13.232-10.768-24-24-24h-16c-13.232,0-24,10.768-24,24v24h-16v48h9.472c-0.896,2.512-1.472,5.184-1.472,8v72h8
				v144h-8v72c0,2.816,0.576,5.488,1.472,8H136v48h18.24l16,48h27.528l16-48H232v-48h-9.472c0.896-2.512,1.472-5.184,1.472-8v-72h-8
				V176h8v-72c0-2.816-0.576-5.488-1.472-8H232V48h-16V24z M168,24c0-4.408,3.584-8,8-8h16c4.416,0,8,3.592,8,8v24h-32V24z
				 M186.232,480h-4.472l-10.672-32h25.808L186.232,480z M216,432h-64v-16h16h32h16V432z M160,160v-56c0-4.408,3.584-8,8-8h32
				c4.416,0,8,3.592,8,8v56H160z M200,176v144h-32V176H200z M208,336v56c0,4.416-3.584,8-8,8h-32c-4.416,0-8-3.584-8-8v-56H208z
				 M216,80h-16h-32h-16V64h64V80z"/>
		</g>
	</g>
</g>
<g>
</g>
<g>
</g>
<g>
</g>
<g>
</g>
<g>
</g>
<g>
</g>
<g>
</g>
<g>
</g>
<g>
</g>
<g>
</g>
<g>
</g>
<g>
</g>
<g>
</g>
<g>
</g>
<g>
</g>
</svg>
