<?xml version="1.0" encoding="utf-8"?>
<!-- Svg Vector Icons : http://www.onlinewebfonts.com/icon -->
<!DOCTYPE svg PUBLIC "-//W3C//DTD SVG 1.1//EN" "http://www.w3.org/Graphics/SVG/1.1/DTD/svg11.dtd">
<svg width="30" height="30" version="1.1" xmlns="http://www.w3.org/2000/svg" xmlns:xlink="http://www.w3.org/1999/xlink" x="0px" y="0px" viewBox="0 0 1000 1000" enable-background="new 0 0 1000 1000" xml:space="preserve">
<metadata> Svg Vector Icons : http://www.onlinewebfonts.com/icon </metadata>
<g><g transform="translate(0.000000,512.000000) scale(0.100000,-0.100000)"><path d="M4563.2,5002.6c-902.4-80.4-1781.8-421.5-2527-977.1c-241.4-180.1-762.5-701.2-942.6-942.6c-285.5-383.2-542.2-852.6-701.2-1285.6C168.2,1190,64.7,450.5,110.7-193.2c49.8-693.5,193.5-1237.7,492.4-1843.1c264.4-538.4,498.1-864,938.8-1302.8c438.7-440.6,764.4-674.4,1302.8-938.8c605.4-298.9,1149.5-442.6,1843.1-492.4c511.5-36.4,1009.6,11.5,1549.9,147.5c1151.4,293.1,2189.8,1040.3,2864.2,2059.6c157.1,235.6,408.1,733.8,505.8,1003.9c224.2,611.2,327.6,1346.9,281.6,1988.7c-49.8,695.4-193.5,1239.5-492.4,1845c-264.4,538.3-498.1,864-938.8,1302.8c-438.7,440.6-764.4,674.4-1302.8,938.8c-346.8,170.5-582.4,258.6-917.7,344.9C5666.7,5006.4,5120.7,5052.4,4563.2,5002.6z M6264.5,2381.7v-477l-342.9-7.7c-492.4-7.7-498.1-13.4-498.1-526.9l-1.9-312.3H5843h421.5v-42.2c0-55.6-76.6-797-88.1-852.6c-7.7-44.1-9.6-44.1-381.3-44.1h-373.6v-1369.8v-1369.8h-565.2h-565.2v1369.8V119.1h-287.4h-287.4v469.4v469.4h285.5h285.5l9.6,456c7.7,392.8,13.4,473.2,49.8,597.8c103.5,350.6,291.2,549.9,622.7,661c182,61.3,385.1,80.5,898.5,84.3l396.6,1.9V2381.7z"/></g></g>
</svg>