<svg id="Capa_1" enable-background="new 0 0 512 512" height="55" viewBox="0 0 512 512" width="63" xmlns="http://www.w3.org/2000/svg"><g><circle cx="256" cy="466" r="10"/><path d="m10 326c11.028 0 20 8.972 20 20v60c0 38.599 31.401 70 70 70h111c5.522 0 10-4.478 10-10s-4.478-10-10-10h-111c-27.57 0-50-22.43-50-50v-60c0-7.283-1.966-14.112-5.382-20h115.202l18.946 37.892c6.818 13.636 20.526 22.108 35.774 22.108h82.92c15.248 0 28.956-8.472 35.774-22.108l18.946-37.902h115.201c-3.415 5.898-5.381 12.727-5.381 20.01v60c0 27.57-22.43 50-50 50h-111c-5.522 0-10 4.478-10 10s4.478 10 10 10h111c38.599 0 70-31.401 70-70v-60c0-11.028 8.972-20 20-20 5.522 0 10-4.478 10-10v-30c0-22.056-17.944-40-40-40h-77.077c12.993-12.716 21.077-30.428 21.077-50v-60c0-11.028 8.972-20 20-20 5.522 0 10-4.478 10-10v-30c0-22.056-17.944-40-40-40h-300c-22.056 0-40 17.944-40 40v30c0 5.522 4.478 10 10 10 11.028 0 20 8.972 20 20v60c0 19.572 8.084 37.284 21.077 50h-77.077c-22.056 0-40 17.944-40 40v30c0 5.522 4.478 10 10 10zm305.346 28.948c-3.408 6.817-10.262 11.052-17.886 11.052h-82.92c-7.624 0-14.478-4.235-17.886-11.052l-14.474-28.948h147.64zm-229.346-278.948c0-11.028 8.972-20 20-20h300c11.028 0 20 8.972 20 20v20h-340zm213.82 40-14.474 28.948c-3.408 6.817-10.262 11.052-17.886 11.052h-22.92c-7.624 0-14.478-4.235-17.886-11.052l-14.474-28.948zm-183.82 80v-60c0-7.283-1.966-14.112-5.382-20h79.201l18.946 37.892c6.819 13.636 20.527 22.108 35.775 22.108h22.92c15.248 0 28.956-8.472 35.774-22.108l18.946-37.902h79.201c-3.415 5.898-5.381 12.727-5.381 20.01v60c0 27.57-22.43 50-50 50h-180c-27.57 0-50-22.43-50-50zm-96 90c0-11.028 8.972-20 20-20h432c11.028 0 20 8.972 20 20v20h-472z"/></g></svg>