<?xml version="1.0" encoding="iso-8859-1"?>
<!-- Generator: Adobe Illustrator 19.0.0, SVG Export Plug-In . SVG Version: 6.00 Build 0)  -->
<svg  width="32" height="40" version="1.1" id="Capa_1" xmlns="http://www.w3.org/2000/svg" xmlns:xlink="http://www.w3.org/1999/xlink" x="0px" y="0px"
	 viewBox="0 0 512.001 512.001" style="enable-background:new 0 0 512.001 512.001;" xml:space="preserve">
<g>
	<g>
		<path d="M464.565,503.264l-11.73-70.384V7.5c0-2.599-1.346-5.013-3.557-6.38c-2.213-1.368-4.973-1.49-7.298-0.328l-43.979,21.989
			L354.018,0.792c-0.039-0.02-0.081-0.032-0.12-0.051c-0.16-0.077-0.324-0.141-0.488-0.206c-0.136-0.054-0.271-0.109-0.409-0.154
			c-0.159-0.052-0.319-0.093-0.481-0.134c-0.148-0.038-0.296-0.077-0.445-0.106c-0.156-0.03-0.312-0.048-0.469-0.068
			s-0.314-0.041-0.472-0.051c-0.152-0.009-0.303-0.008-0.455-0.008c-0.164,0-0.328-0.002-0.492,0.009
			c-0.146,0.009-0.291,0.029-0.437,0.047c-0.169,0.021-0.337,0.041-0.504,0.073c-0.139,0.027-0.276,0.064-0.413,0.098
			c-0.171,0.043-0.342,0.086-0.511,0.142c-0.13,0.043-0.258,0.095-0.386,0.146c-0.171,0.067-0.34,0.134-0.507,0.214
			c-0.038,0.018-0.078,0.03-0.116,0.049l-43.979,21.989l-43.98-21.989c-2.11-1.055-4.596-1.056-6.708,0l-43.979,21.989
			L164.689,0.792c-2.111-1.056-4.596-1.056-6.708,0l-43.979,21.989L70.019,0.792c-2.326-1.163-5.087-1.038-7.297,0.329
			c-2.211,1.367-3.557,3.781-3.557,6.38v425.375l-11.729,70.392c-0.362,2.175,0.25,4.399,1.675,6.081
			c1.425,1.682,3.518,2.652,5.723,2.652l307.668-0.003h94.666c2.205,0,4.298-0.97,5.723-2.652S464.928,505.438,464.565,503.264z
			 M63.686,497l9.331-56h187.421c4.143,0,7.5-3.358,7.5-7.5c0-4.142-3.357-7.5-7.5-7.5H74.165V19.635l36.483,18.24
			c2.111,1.056,4.597,1.055,6.708,0l43.979-21.989l43.978,21.989c2.111,1.056,4.597,1.056,6.708,0L256,15.886l43.98,21.989
			c2.111,1.056,4.597,1.056,6.708,0l36.476-18.237v406.364h-39.83c-4.143,0-7.5,3.358-7.5,7.5c0,4.142,3.357,7.5,7.5,7.5h40.978
			l9.107,54.624l0.229,1.372L63.686,497z M368.855,496.997L368.855,496.997l-1.74-10.438l-7.593-45.558h42.916
			c4.143,0,7.5-3.358,7.5-7.5c0-4.142-3.357-7.5-7.5-7.5h-44.271V19.637l36.48,18.238c2.111,1.056,4.597,1.055,6.708,0
			l36.479-18.239v413.865c0,0.413,0.034,0.826,0.102,1.233l10.378,62.263H368.855z"/>
	</g>
</g>
<g>
	<g>
		<path d="M287.169,244.172c0-16.75-5.224-32.691-14.878-45.987v-21.971h0.001c0-4.142-3.357-7.5-7.5-7.5s-7.5,3.358-7.5,7.5v6.341
			c-13.8-10.934-30.75-16.886-48.623-16.886c-20.968,0-40.682,8.166-55.508,22.993c-6.954,6.954-12.31,14.904-16.104,23.389
			l-19.051,10.999c-3.587,2.071-4.816,6.658-2.745,10.245s6.658,4.816,10.245,2.745l5.512-3.182
			c-3.421,23.682,3.96,48.639,22.142,66.822c14.827,14.827,34.54,22.992,55.508,22.992c2.696,0,5.371-0.14,8.018-0.407
			l19.023,10.983c1.181,0.682,2.471,1.006,3.743,1.006c2.592,0,5.113-1.346,6.502-3.751c2.071-3.587,0.842-8.174-2.745-10.245
			l-5.453-3.148c9.776-3.897,18.754-9.764,26.42-17.43C279.004,284.853,287.169,265.14,287.169,244.172z M235.129,301.919
			l2.163-3.747c2.071-3.587,0.842-8.174-2.745-10.245c-3.587-2.073-8.175-0.842-10.245,2.745l-9.651,16.717
			c-1.977,0.184-3.971,0.283-5.981,0.283c-16.961,0-32.908-6.605-44.902-18.599c-13.874-13.874-19.969-32.623-18.294-50.784
			l2.119,3.669c1.389,2.406,3.91,3.751,6.502,3.751c1.272,0,2.562-0.324,3.743-1.006c3.587-2.071,4.816-6.658,2.745-10.245
			l-9.649-16.713c3.057-6.698,7.33-12.972,12.834-18.477c11.994-11.994,27.94-18.599,44.902-18.599
			c13.359,0,26.078,4.113,36.742,11.712h-4.287c-4.142,0-7.5,3.358-7.5,7.5c0,4.142,3.358,7.5,7.5,7.5h19.3
			c7.621,10.674,11.745,23.411,11.745,36.789c0,16.963-6.605,32.909-18.599,44.903C248.144,294.5,241.902,298.811,235.129,301.919z"
			/>
	</g>
</g>
<g>
</g>
<g>
</g>
<g>
</g>
<g>
</g>
<g>
</g>
<g>
</g>
<g>
</g>
<g>
</g>
<g>
</g>
<g>
</g>
<g>
</g>
<g>
</g>
<g>
</g>
<g>
</g>
<g>
</g>
</svg>
